# MagicaVoxel @ ephtracy

# material
mtllib receiver.mtl

# normals
vn -1 0 0
vn 1 0 0
vn 0 0 1
vn 0 0 -1
vn 0 -1 0
vn 0 1 0

# texcoords
vt 0.958984 0.5

# verts
v -2.5 2 0.5
v -2.5 3 0.5
v -2.5 3 -0.5
v -2.5 2 -0.5
v -1.5 5 0.5
v -1.5 6 0.5
v -1.5 6 -0.5
v -1.5 5 -0.5
v 1.5 2 0.5
v 1.5 3 0.5
v 1.5 3 -0.5
v 1.5 2 -0.5
v -1.5 2 -0.5
v -1.5 3 -0.5
v -1.5 3 -1.5
v -1.5 2 -1.5
v 1.5 4 0.5
v 1.5 5 0.5
v 1.5 5 -0.5
v 1.5 4 -0.5
v -2.5 4 0.5
v -2.5 4 -0.5
v -1.5 4 -0.5
v -1.5 5 -1.5
v -1.5 4 -1.5
v -2.5 4 -1.5
v -2.5 3 -1.5
v -2.5 5 0.5
v -2.5 5 -0.5
v -0.5 3 1.5
v -0.5 4 1.5
v -0.5 4 0.5
v -0.5 3 0.5
v -0.5 0 -0.5
v -0.5 1 -0.5
v -0.5 1 -1.5
v -0.5 0 -1.5
v -0.5 4 -0.5
v -0.5 3 -0.5
v -1.5 1 0.5
v -1.5 2 0.5
v -1.5 1 -0.5
v -0.5 2 -0.5
v -0.5 2 -1.5
v -1.5 3 0.5
v 1.5 6 -0.5
v 1.5 6 0.5
v 2.5 2 0.5
v 2.5 2 -0.5
v 2.5 3 -0.5
v 2.5 3 0.5
v 1.5 2 -1.5
v 1.5 3 -1.5
v 2.5 4 0.5
v 2.5 4 -0.5
v 2.5 5 -0.5
v 2.5 5 0.5
v -1.5 4 0.5
v 1.5 4 -1.5
v 1.5 5 -1.5
v 2.5 3 -1.5
v 2.5 4 -1.5
v 0.5 3 1.5
v 0.5 3 0.5
v 0.5 4 0.5
v 0.5 4 1.5
v 1.5 1 0.5
v 1.5 1 -0.5
v 0.5 0 -0.5
v 0.5 0 -1.5
v 0.5 1 -1.5
v 0.5 1 -0.5
v 0.5 3 -0.5
v 0.5 4 -0.5
v 0.5 2 -1.5
v 0.5 2 -0.5
v -0.5 5 0.5
v -0.5 6 0.5
v 0.5 5 0.5
v 0.5 6 0.5
v -0.5 1 0.5
v 0.5 1 0.5
v 0.5 2 0.5
v -0.5 2 0.5
v -0.5 5 -0.5
v 0.5 5 -0.5
v -0.5 6 -0.5
v 0.5 6 -0.5
v -0.5 3 -1.5
v 0.5 3 -1.5
v -0.5 5 -1.5
v -0.5 4 -1.5
v 0.5 4 -1.5
v 0.5 5 -1.5

# faces

usemtl palette

f 1/1/1 2/1/1 3/1/1 4/1/1

f 5/1/1 6/1/1 7/1/1 8/1/1

f 9/1/1 10/1/1 11/1/1 12/1/1

f 13/1/1 14/1/1 15/1/1 16/1/1

f 17/1/1 18/1/1 19/1/1 20/1/1

f 2/1/1 21/1/1 22/1/1 3/1/1

f 23/1/1 8/1/1 24/1/1 25/1/1

f 10/1/1 17/1/1 20/1/1 11/1/1

f 3/1/1 22/1/1 26/1/1 27/1/1

f 21/1/1 28/1/1 29/1/1 22/1/1

f 30/1/1 31/1/1 32/1/1 33/1/1

f 34/1/1 35/1/1 36/1/1 37/1/1

f 33/1/1 32/1/1 38/1/1 39/1/1

f 40/1/1 41/1/1 13/1/1 42/1/1

f 35/1/1 43/1/1 44/1/1 36/1/1

f 41/1/2 13/1/2 14/1/2 45/1/2

f 18/1/2 19/1/2 46/1/2 47/1/2

f 48/1/2 49/1/2 50/1/2 51/1/2

f 12/1/2 52/1/2 53/1/2 11/1/2

f 54/1/2 55/1/2 56/1/2 57/1/2

f 45/1/2 14/1/2 23/1/2 58/1/2

f 20/1/2 59/1/2 60/1/2 19/1/2

f 51/1/2 50/1/2 55/1/2 54/1/2

f 50/1/2 61/1/2 62/1/2 55/1/2

f 58/1/2 23/1/2 8/1/2 5/1/2

f 63/1/2 64/1/2 65/1/2 66/1/2

f 67/1/2 68/1/2 12/1/2 9/1/2

f 69/1/2 70/1/2 71/1/2 72/1/2

f 64/1/2 73/1/2 74/1/2 65/1/2

f 72/1/2 71/1/2 75/1/2 76/1/2

f 1/1/3 41/1/3 45/1/3 2/1/3

f 5/1/3 77/1/3 78/1/3 6/1/3

f 77/1/3 79/1/3 80/1/3 78/1/3

f 79/1/3 18/1/3 47/1/3 80/1/3

f 9/1/3 48/1/3 51/1/3 10/1/3

f 81/1/3 82/1/3 83/1/3 84/1/3

f 13/1/3 43/1/3 39/1/3 14/1/3

f 43/1/3 76/1/3 73/1/3 39/1/3

f 76/1/3 12/1/3 11/1/3 73/1/3

f 17/1/3 54/1/3 57/1/3 18/1/3

f 2/1/3 45/1/3 58/1/3 21/1/3

f 23/1/3 38/1/3 85/1/3 8/1/3

f 74/1/3 20/1/3 19/1/3 86/1/3

f 38/1/3 74/1/3 86/1/3 85/1/3

f 10/1/3 51/1/3 54/1/3 17/1/3

f 14/1/3 39/1/3 38/1/3 23/1/3

f 73/1/3 11/1/3 20/1/3 74/1/3

f 21/1/3 58/1/3 5/1/3 28/1/3

f 30/1/3 63/1/3 66/1/3 31/1/3

f 82/1/3 67/1/3 9/1/3 83/1/3

f 34/1/3 69/1/3 72/1/3 35/1/3

f 40/1/3 81/1/3 84/1/3 41/1/3

f 4/1/4 3/1/4 14/1/4 13/1/4

f 8/1/4 7/1/4 87/1/4 85/1/4

f 85/1/4 87/1/4 88/1/4 86/1/4

f 86/1/4 88/1/4 46/1/4 19/1/4

f 12/1/4 11/1/4 50/1/4 49/1/4

f 16/1/4 15/1/4 89/1/4 44/1/4

f 44/1/4 89/1/4 90/1/4 75/1/4

f 75/1/4 90/1/4 53/1/4 52/1/4

f 20/1/4 19/1/4 56/1/4 55/1/4

f 25/1/4 24/1/4 91/1/4 92/1/4

f 93/1/4 94/1/4 60/1/4 59/1/4

f 92/1/4 91/1/4 94/1/4 93/1/4

f 27/1/4 26/1/4 25/1/4 15/1/4

f 15/1/4 25/1/4 92/1/4 89/1/4

f 89/1/4 92/1/4 93/1/4 90/1/4

f 90/1/4 93/1/4 59/1/4 53/1/4

f 53/1/4 59/1/4 62/1/4 61/1/4

f 22/1/4 29/1/4 8/1/4 23/1/4

f 72/1/4 76/1/4 12/1/4 68/1/4

f 37/1/4 36/1/4 71/1/4 70/1/4

f 42/1/4 13/1/4 43/1/4 35/1/4

f 36/1/4 44/1/4 75/1/4 71/1/4

f 1/1/5 4/1/5 13/1/5 41/1/5

f 5/1/5 8/1/5 85/1/5 77/1/5

f 77/1/5 85/1/5 86/1/5 79/1/5

f 79/1/5 86/1/5 19/1/5 18/1/5

f 9/1/5 12/1/5 49/1/5 48/1/5

f 81/1/5 35/1/5 72/1/5 82/1/5

f 13/1/5 16/1/5 44/1/5 43/1/5

f 76/1/5 75/1/5 52/1/5 12/1/5

f 3/1/5 27/1/5 15/1/5 14/1/5

f 11/1/5 53/1/5 61/1/5 50/1/5

f 30/1/5 33/1/5 64/1/5 63/1/5

f 82/1/5 72/1/5 68/1/5 67/1/5

f 34/1/5 37/1/5 70/1/5 69/1/5

f 33/1/5 39/1/5 73/1/5 64/1/5

f 40/1/5 42/1/5 35/1/5 81/1/5

f 6/1/6 78/1/6 87/1/6 7/1/6

f 78/1/6 80/1/6 88/1/6 87/1/6

f 80/1/6 47/1/6 46/1/6 88/1/6

f 84/1/6 83/1/6 76/1/6 43/1/6

f 18/1/6 57/1/6 56/1/6 19/1/6

f 8/1/6 85/1/6 91/1/6 24/1/6

f 86/1/6 19/1/6 60/1/6 94/1/6

f 85/1/6 86/1/6 94/1/6 91/1/6

f 22/1/6 23/1/6 25/1/6 26/1/6

f 20/1/6 55/1/6 62/1/6 59/1/6

f 28/1/6 5/1/6 8/1/6 29/1/6

f 31/1/6 66/1/6 65/1/6 32/1/6

f 83/1/6 9/1/6 12/1/6 76/1/6

f 32/1/6 65/1/6 74/1/6 38/1/6

f 41/1/6 84/1/6 43/1/6 13/1/6

# numNormals 6
# numTexCoords 1
# numVerts 94
# numFaces 104
