# MagicaVoxel @ ephtracy

# material
mtllib sat_small.mtl

# normals
vn -1 0 0
vn 1 0 0
vn 0 0 1
vn 0 0 -1
vn 0 -1 0
vn 0 1 0

# texcoords
vt 0.0566406 0.5
vt 0.728516 0.5
vt 0.958984 0.5
vt 0.990234 0.5

# verts
v -7 60 7
v -7 61 7
v -7 61 6
v -7 60 6
v -7 59 7
v -7 59 6
v -7 61 5
v -7 60 5
v -9 55 6
v -9 56 6
v -9 56 5
v -9 55 5
v -6 59 6
v -6 60 6
v -6 60 5
v -6 59 5
v -9 55 8
v -9 56 8
v -9 56 7
v -9 55 7
v -7 61 4
v -7 60 4
v -7 58 7
v -7 58 6
v -7 59 5
v -7 59 4
v -3 55 4
v -3 56 4
v -3 56 3
v -3 55 3
v -5 59 5
v -5 60 5
v -5 60 4
v -5 59 4
v -3 55 5
v -3 56 5
v -5 59 7
v -5 60 7
v -5 60 6
v -5 59 6
v -7 58 5
v -7 58 4
v -6 57 6
v -6 58 6
v -6 58 5
v -6 57 5
v -8 56 6
v -8 57 6
v -8 57 5
v -8 56 5
v -8 57 4
v -8 56 4
v -8 57 3
v -8 56 3
v -9 55 4
v -9 56 4
v -9 56 3
v -9 55 3
v -8 55 9
v -8 56 9
v -8 56 8
v -8 55 8
v -8 56 7
v -8 57 7
v -8 57 8
v -8 55 3
v -8 56 2
v -8 55 2
v -3 55 8
v -3 56 8
v -3 56 7
v -3 55 7
v -3 56 6
v -3 55 6
v -7 62 5
v -7 62 4
v -7 62 6
v -7 62 7
v -6 59 7
v -6 60 7
v -8 55 6
v -8 55 5
v -8 55 7
v -4 60 5
v -4 60 4
v -4 61 4
v -4 61 5
v -4 58 7
v -4 58 6
v -4 59 6
v -4 59 7
v -4 60 6
v -4 61 6
v -4 60 7
v -4 61 7
v -6 59 4
v -6 60 4
v -2 55 4
v -2 55 3
v -2 56 3
v -2 56 4
v -4 59 5
v -4 59 4
v -2 55 5
v -2 56 5
v -4 58 5
v -4 58 4
v -5 57 6
v -5 57 5
v -5 58 5
v -5 58 6
v -3 57 3
v -3 57 4
v -3 57 5
v -3 57 6
v -8 55 4
v -3 55 2
v -3 56 2
v -3 57 7
v -3 55 9
v -3 56 9
v -3 57 8
v -2 55 8
v -2 55 7
v -2 56 7
v -2 56 8
v -2 55 6
v -2 56 6
v -4 62 4
v -4 62 5
v -4 62 6
v -4 62 7
v -6 61 7
v -5 61 7
v -5 58 7
v -6 58 7
v -7 55 9
v -6 55 9
v -6 56 9
v -7 56 9
v -5 55 9
v -5 56 9
v -4 55 9
v -4 56 9
v -4 55 3
v -4 56 3
v -5 55 3
v -5 56 3
v -6 55 3
v -6 56 3
v -7 56 8
v -7 57 8
v -6 56 8
v -6 57 8
v -5 56 8
v -5 57 8
v -4 56 8
v -4 57 8
v -7 55 3
v -7 56 3
v -6 62 7
v -5 62 7
v -6 61 4
v -5 61 4
v -6 58 4
v -5 58 4
v -7 55 8
v -6 55 8
v -5 55 8
v -4 55 8
v -7 57 3
v -6 57 3
v -5 57 3
v -4 57 3
v -4 55 2
v -4 56 2
v -5 55 2
v -5 56 2
v -6 55 2
v -6 56 2
v -7 55 2
v -7 56 2
v -6 62 4
v -5 62 4
v -6 56 6
v -6 56 5
v -5 56 5
v -5 56 6
v -7 56 6
v -7 56 5
v -7 56 4
v -6 56 4
v -5 56 4
v -4 56 4
v -4 56 5
v -4 56 6
v -7 56 7
v -6 56 7
v -5 56 7
v -4 56 7
v -7 57 6
v -7 57 5
v -7 57 4
v -6 57 4
v -5 57 4
v -4 57 4
v -4 57 5
v -4 57 6
v -7 57 7
v -6 57 7
v -5 57 7
v -4 57 7
v -6 62 5
v -5 62 5
v -6 62 6
v -5 62 6

# faces

usemtl palette

f 1/3/1 2/3/1 3/3/1 4/3/1

f 5/3/1 1/3/1 4/3/1 6/3/1

f 4/3/1 3/3/1 7/3/1 8/3/1

f 9/2/1 10/2/1 11/2/1 12/2/1

f 13/3/1 14/3/1 15/3/1 16/3/1

f 17/2/1 18/2/1 19/2/1 20/2/1

f 8/3/1 7/3/1 21/3/1 22/3/1

f 23/3/1 5/3/1 6/3/1 24/3/1

f 25/3/1 8/3/1 22/3/1 26/3/1

f 27/2/1 28/2/1 29/2/1 30/2/1

f 31/3/1 32/3/1 33/3/1 34/3/1

f 35/2/1 36/2/1 28/2/1 27/2/1

f 37/3/1 38/3/1 39/3/1 40/3/1

f 41/3/1 25/3/1 26/3/1 42/3/1

f 24/3/1 6/3/1 25/3/1 41/3/1

f 43/4/1 44/4/1 45/4/1 46/4/1

f 47/2/1 48/2/1 49/2/1 50/2/1

f 50/2/1 49/2/1 51/2/1 52/2/1

f 52/2/1 51/2/1 53/2/1 54/2/1

f 55/2/1 56/2/1 57/2/1 58/2/1

f 59/2/1 60/2/1 61/2/1 62/2/1

f 63/2/1 64/2/1 48/2/1 47/2/1

f 61/2/1 65/2/1 64/2/1 63/2/1

f 20/2/1 19/2/1 10/2/1 9/2/1

f 66/2/1 54/2/1 67/2/1 68/2/1

f 12/2/1 11/2/1 56/2/1 55/2/1

f 69/2/1 70/2/1 71/2/1 72/2/1

f 72/2/1 71/2/1 73/2/1 74/2/1

f 74/2/1 73/2/1 36/2/1 35/2/1

f 7/1/1 75/1/1 76/1/1 21/1/1

f 3/1/1 77/1/1 75/1/1 7/1/1

f 2/1/1 78/1/1 77/1/1 3/1/1

f 79/3/2 13/3/2 14/3/2 80/3/2

f 81/2/2 82/2/2 50/2/2 47/2/2

f 40/3/2 31/3/2 32/3/2 39/3/2

f 62/2/2 83/2/2 63/2/2 61/2/2

f 84/3/2 85/3/2 86/3/2 87/3/2

f 88/3/2 89/3/2 90/3/2 91/3/2

f 92/3/2 84/3/2 87/3/2 93/3/2

f 94/3/2 92/3/2 93/3/2 95/3/2

f 16/3/2 96/3/2 97/3/2 15/3/2

f 98/2/2 99/2/2 100/2/2 101/2/2

f 102/3/2 103/3/2 85/3/2 84/3/2

f 104/2/2 98/2/2 101/2/2 105/2/2

f 91/3/2 90/3/2 92/3/2 94/3/2

f 106/3/2 107/3/2 103/3/2 102/3/2

f 89/3/2 106/3/2 102/3/2 90/3/2

f 108/4/2 109/4/2 110/4/2 111/4/2

f 28/2/2 29/2/2 112/2/2 113/2/2

f 36/2/2 28/2/2 113/2/2 114/2/2

f 73/2/2 36/2/2 114/2/2 115/2/2

f 116/2/2 66/2/2 54/2/2 52/2/2

f 30/2/2 117/2/2 118/2/2 29/2/2

f 71/2/2 73/2/2 115/2/2 119/2/2

f 120/2/2 69/2/2 70/2/2 121/2/2

f 70/2/2 71/2/2 119/2/2 122/2/2

f 83/2/2 81/2/2 47/2/2 63/2/2

f 82/2/2 116/2/2 52/2/2 50/2/2

f 123/2/2 124/2/2 125/2/2 126/2/2

f 124/2/2 127/2/2 128/2/2 125/2/2

f 127/2/2 104/2/2 105/2/2 128/2/2

f 87/1/2 86/1/2 129/1/2 130/1/2

f 93/1/2 87/1/2 130/1/2 131/1/2

f 95/1/2 93/1/2 131/1/2 132/1/2

f 1/3/3 80/3/3 133/3/3 2/3/3

f 5/3/3 79/3/3 80/3/3 1/3/3

f 80/3/3 38/3/3 134/3/3 133/3/3

f 13/3/3 40/3/3 39/3/3 14/3/3

f 17/2/3 62/2/3 61/2/3 18/2/3

f 135/3/3 88/3/3 91/3/3 37/3/3

f 136/3/3 135/3/3 37/3/3 79/3/3

f 38/3/3 94/3/3 95/3/3 134/3/3

f 23/3/3 136/3/3 79/3/3 5/3/3

f 25/3/3 16/3/3 15/3/3 8/3/3

f 31/3/3 102/3/3 84/3/3 32/3/3

f 37/3/3 91/3/3 94/3/3 38/3/3

f 43/4/3 108/4/3 111/4/3 44/4/3

f 137/2/3 138/2/3 139/2/3 140/2/3

f 138/2/3 141/2/3 142/2/3 139/2/3

f 141/2/3 143/2/3 144/2/3 142/2/3

f 145/2/3 30/2/3 29/2/3 146/2/3

f 147/2/3 145/2/3 146/2/3 148/2/3

f 59/2/3 137/2/3 140/2/3 60/2/3

f 149/2/3 147/2/3 148/2/3 150/2/3

f 143/2/3 120/2/3 121/2/3 144/2/3

f 61/2/3 151/2/3 152/2/3 65/2/3

f 151/2/3 153/2/3 154/2/3 152/2/3

f 153/2/3 155/2/3 156/2/3 154/2/3

f 155/2/3 157/2/3 158/2/3 156/2/3

f 157/2/3 70/2/3 122/2/3 158/2/3

f 159/2/3 149/2/3 150/2/3 160/2/3

f 66/2/3 159/2/3 160/2/3 54/2/3

f 69/2/3 123/2/3 126/2/3 70/2/3

f 2/1/3 133/1/3 161/1/3 78/1/3

f 133/1/3 134/1/3 162/1/3 161/1/3

f 134/1/3 95/1/3 132/1/3 162/1/3

f 6/3/4 4/3/4 14/3/4 13/3/4

f 16/3/4 15/3/4 32/3/4 31/3/4

f 22/3/4 21/3/4 163/3/4 97/3/4

f 97/3/4 163/3/4 164/3/4 33/3/4

f 33/3/4 164/3/4 86/3/4 85/3/4

f 26/3/4 22/3/4 97/3/4 96/3/4

f 30/2/4 29/2/4 100/2/4 99/2/4

f 34/3/4 33/3/4 85/3/4 103/3/4

f 40/3/4 39/3/4 92/3/4 90/3/4

f 42/3/4 26/3/4 96/3/4 165/3/4

f 165/3/4 96/3/4 34/3/4 166/3/4

f 166/3/4 34/3/4 103/3/4 107/3/4

f 46/4/4 45/4/4 110/4/4 109/4/4

f 167/2/4 151/2/4 153/2/4 168/2/4

f 168/2/4 153/2/4 155/2/4 169/2/4

f 169/2/4 155/2/4 157/2/4 170/2/4

f 54/2/4 53/2/4 171/2/4 160/2/4

f 160/2/4 171/2/4 172/2/4 150/2/4

f 150/2/4 172/2/4 173/2/4 148/2/4

f 148/2/4 173/2/4 174/2/4 146/2/4

f 146/2/4 174/2/4 112/2/4 29/2/4

f 58/2/4 57/2/4 54/2/4 66/2/4

f 175/2/4 176/2/4 118/2/4 117/2/4

f 177/2/4 178/2/4 176/2/4 175/2/4

f 62/2/4 61/2/4 151/2/4 167/2/4

f 179/2/4 180/2/4 178/2/4 177/2/4

f 170/2/4 157/2/4 70/2/4 69/2/4

f 181/2/4 182/2/4 180/2/4 179/2/4

f 68/2/4 67/2/4 182/2/4 181/2/4

f 21/1/4 76/1/4 183/1/4 163/1/4

f 163/1/4 183/1/4 184/1/4 164/1/4

f 164/1/4 184/1/4 129/1/4 86/1/4

f 80/3/5 14/3/5 39/3/5 38/3/5

f 4/3/5 8/3/5 15/3/5 14/3/5

f 9/2/5 12/2/5 82/2/5 81/2/5

f 17/2/5 20/2/5 83/2/5 62/2/5

f 15/3/5 97/3/5 33/3/5 32/3/5

f 135/3/5 111/3/5 89/3/5 88/3/5

f 39/3/5 32/3/5 84/3/5 92/3/5

f 136/3/5 44/3/5 111/3/5 135/3/5

f 23/3/5 24/3/5 44/3/5 136/3/5

f 27/2/5 30/2/5 99/2/5 98/2/5

f 35/2/5 27/2/5 98/2/5 104/2/5

f 41/3/5 42/3/5 165/3/5 45/3/5

f 45/3/5 165/3/5 166/3/5 110/3/5

f 110/3/5 166/3/5 107/3/5 106/3/5

f 24/3/5 41/3/5 45/3/5 44/3/5

f 111/3/5 110/3/5 106/3/5 89/3/5

f 185/2/5 186/2/5 187/2/5 188/2/5

f 189/2/5 190/2/5 186/2/5 185/2/5

f 47/2/5 50/2/5 190/2/5 189/2/5

f 137/2/5 167/2/5 168/2/5 138/2/5

f 138/2/5 168/2/5 169/2/5 141/2/5

f 50/2/5 52/2/5 191/2/5 190/2/5

f 190/2/5 191/2/5 192/2/5 186/2/5

f 186/2/5 192/2/5 193/2/5 187/2/5

f 141/2/5 169/2/5 170/2/5 143/2/5

f 52/2/5 54/2/5 160/2/5 191/2/5

f 191/2/5 160/2/5 150/2/5 192/2/5

f 192/2/5 150/2/5 148/2/5 193/2/5

f 193/2/5 148/2/5 146/2/5 194/2/5

f 187/2/5 193/2/5 194/2/5 195/2/5

f 188/2/5 187/2/5 195/2/5 196/2/5

f 194/2/5 146/2/5 29/2/5 28/2/5

f 195/2/5 194/2/5 28/2/5 36/2/5

f 196/2/5 195/2/5 36/2/5 73/2/5

f 55/2/5 58/2/5 66/2/5 116/2/5

f 145/2/5 175/2/5 117/2/5 30/2/5

f 147/2/5 177/2/5 175/2/5 145/2/5

f 59/2/5 62/2/5 167/2/5 137/2/5

f 63/2/5 47/2/5 189/2/5 197/2/5

f 197/2/5 189/2/5 185/2/5 198/2/5

f 198/2/5 185/2/5 188/2/5 199/2/5

f 199/2/5 188/2/5 196/2/5 200/2/5

f 200/2/5 196/2/5 73/2/5 71/2/5

f 149/2/5 179/2/5 177/2/5 147/2/5

f 143/2/5 170/2/5 69/2/5 120/2/5

f 61/2/5 63/2/5 197/2/5 151/2/5

f 151/2/5 197/2/5 198/2/5 153/2/5

f 153/2/5 198/2/5 199/2/5 155/2/5

f 155/2/5 199/2/5 200/2/5 157/2/5

f 157/2/5 200/2/5 71/2/5 70/2/5

f 159/2/5 181/2/5 179/2/5 149/2/5

f 20/2/5 9/2/5 81/2/5 83/2/5

f 66/2/5 68/2/5 181/2/5 159/2/5

f 12/2/5 55/2/5 116/2/5 82/2/5

f 69/2/5 72/2/5 124/2/5 123/2/5

f 72/2/5 74/2/5 127/2/5 124/2/5

f 74/2/5 35/2/5 104/2/5 127/2/5

f 10/2/6 47/2/6 50/2/6 11/2/6

f 18/2/6 61/2/6 63/2/6 19/2/6

f 79/3/6 37/3/6 40/3/6 13/3/6

f 28/2/6 101/2/6 100/2/6 29/2/6

f 36/2/6 105/2/6 101/2/6 28/2/6

f 16/3/6 31/3/6 34/3/6 96/3/6

f 6/3/6 13/3/6 16/3/6 25/3/6

f 40/3/6 90/3/6 102/3/6 31/3/6

f 201/2/6 43/2/6 46/2/6 202/2/6

f 48/2/6 201/2/6 202/2/6 49/2/6

f 140/2/6 139/2/6 153/2/6 151/2/6

f 139/2/6 142/2/6 155/2/6 153/2/6

f 49/2/6 202/2/6 203/2/6 51/2/6

f 202/2/6 46/2/6 204/2/6 203/2/6

f 46/2/6 109/2/6 205/2/6 204/2/6

f 142/2/6 144/2/6 157/2/6 155/2/6

f 51/2/6 203/2/6 171/2/6 53/2/6

f 203/2/6 204/2/6 172/2/6 171/2/6

f 204/2/6 205/2/6 173/2/6 172/2/6

f 205/2/6 206/2/6 174/2/6 173/2/6

f 109/2/6 207/2/6 206/2/6 205/2/6

f 108/2/6 208/2/6 207/2/6 109/2/6

f 206/2/6 113/2/6 112/2/6 174/2/6

f 207/2/6 114/2/6 113/2/6 206/2/6

f 208/2/6 115/2/6 114/2/6 207/2/6

f 56/2/6 52/2/6 54/2/6 57/2/6

f 146/2/6 29/2/6 118/2/6 176/2/6

f 148/2/6 146/2/6 176/2/6 178/2/6

f 60/2/6 140/2/6 151/2/6 61/2/6

f 64/2/6 209/2/6 201/2/6 48/2/6

f 209/2/6 210/2/6 43/2/6 201/2/6

f 210/2/6 211/2/6 108/2/6 43/2/6

f 211/2/6 212/2/6 208/2/6 108/2/6

f 212/2/6 119/2/6 115/2/6 208/2/6

f 150/2/6 148/2/6 178/2/6 180/2/6

f 144/2/6 121/2/6 70/2/6 157/2/6

f 65/2/6 152/2/6 209/2/6 64/2/6

f 152/2/6 154/2/6 210/2/6 209/2/6

f 154/2/6 156/2/6 211/2/6 210/2/6

f 156/2/6 158/2/6 212/2/6 211/2/6

f 158/2/6 122/2/6 119/2/6 212/2/6

f 160/2/6 150/2/6 180/2/6 182/2/6

f 19/2/6 63/2/6 47/2/6 10/2/6

f 54/2/6 160/2/6 182/2/6 67/2/6

f 11/2/6 50/2/6 52/2/6 56/2/6

f 70/2/6 126/2/6 125/2/6 71/2/6

f 71/2/6 125/2/6 128/2/6 73/2/6

f 73/2/6 128/2/6 105/2/6 36/2/6

f 75/1/6 213/1/6 183/1/6 76/1/6

f 213/1/6 214/1/6 184/1/6 183/1/6

f 214/1/6 130/1/6 129/1/6 184/1/6

f 77/1/6 215/1/6 213/1/6 75/1/6

f 215/1/6 216/1/6 214/1/6 213/1/6

f 216/1/6 131/1/6 130/1/6 214/1/6

f 78/1/6 161/1/6 215/1/6 77/1/6

f 161/1/6 162/1/6 216/1/6 215/1/6

f 162/1/6 132/1/6 131/1/6 216/1/6

# numNormals 6
# numTexCoords 4
# numVerts 216
# numFaces 242
