# MagicaVoxel @ ephtracy

# material
mtllib sat_small.mtl

# normals
vn -1 0 0
vn 1 0 0
vn 0 0 1
vn 0 0 -1
vn 0 -1 0
vn 0 1 0

# texcoords
vt 0.0566406 0.5
vt 0.728516 0.5
vt 0.958984 0.5
vt 0.990234 0.5

# verts
v -1.5 5 1.5
v -1.5 6 1.5
v -1.5 6 0.5
v -1.5 5 0.5
v -1.5 7 1.5
v -1.5 7 0.5
v -1.5 7 -0.5
v -1.5 6 -0.5
v -1.5 7 -1.5
v -1.5 6 -1.5
v 2.5 0 0.5
v 2.5 1 0.5
v 2.5 1 -0.5
v 2.5 0 -0.5
v 2.5 0 1.5
v 2.5 1 1.5
v 2.5 0 2.5
v 2.5 1 2.5
v -1.5 4 1.5
v -1.5 4 0.5
v -1.5 5 -0.5
v -2.5 1 0.5
v -2.5 2 0.5
v -2.5 2 -0.5
v -2.5 1 -0.5
v -0.5 4 0.5
v -0.5 5 0.5
v -0.5 5 -0.5
v -0.5 4 -0.5
v -1.5 5 -1.5
v -2.5 2 -1.5
v -2.5 1 -1.5
v -2.5 2 -2.5
v -2.5 1 -2.5
v -0.5 2 0.5
v -0.5 3 0.5
v -0.5 3 -0.5
v -0.5 2 -0.5
v -1.5 3 0.5
v -1.5 4 -0.5
v -1.5 3 -0.5
v -1.5 4 -1.5
v -1.5 3 -1.5
v 0.5 4 1.5
v 0.5 5 1.5
v 0.5 5 0.5
v 0.5 4 0.5
v 2.5 1 -1.5
v 2.5 0 -1.5
v 0.5 4 -0.5
v 0.5 5 -0.5
v 0.5 5 -1.5
v 0.5 4 -1.5
v 2.5 1 -2.5
v 2.5 0 -2.5
v -1.5 3 1.5
v -2.5 0 -2.5
v -2.5 1 -3.5
v -2.5 0 -3.5
v -2.5 1 2.5
v -2.5 2 2.5
v -2.5 2 1.5
v -2.5 1 1.5
v -2.5 0 3.5
v -2.5 1 3.5
v -2.5 0 2.5
v -3.5 0 -1.5
v -3.5 1 -1.5
v -3.5 1 -2.5
v -3.5 0 -2.5
v -3.5 0 -0.5
v -3.5 1 -0.5
v -3.5 0 1.5
v -3.5 1 1.5
v -3.5 1 0.5
v -3.5 0 0.5
v -3.5 0 2.5
v -3.5 1 2.5
v 1.5 6 1.5
v 1.5 6 0.5
v 1.5 7 0.5
v 1.5 7 1.5
v 1.5 6 -0.5
v 1.5 7 -0.5
v 1.5 6 -1.5
v 1.5 7 -1.5
v 3.5 0 0.5
v 3.5 0 -0.5
v 3.5 1 -0.5
v 3.5 1 0.5
v 3.5 0 1.5
v 3.5 1 1.5
v 3.5 0 2.5
v 3.5 1 2.5
v -0.5 4 1.5
v -0.5 5 1.5
v 2.5 2 1.5
v 2.5 2 2.5
v 2.5 2 0.5
v 2.5 0 -3.5
v 2.5 1 -3.5
v 2.5 2 -0.5
v 2.5 2 -1.5
v 2.5 2 -2.5
v 1.5 5 -0.5
v 1.5 5 -1.5
v 1.5 3 1.5
v 1.5 3 0.5
v 1.5 4 0.5
v 1.5 4 1.5
v 1.5 5 0.5
v 0.5 2 0.5
v 0.5 2 -0.5
v 0.5 3 -0.5
v 0.5 3 0.5
v 1.5 3 -0.5
v 1.5 4 -0.5
v 1.5 3 -1.5
v 1.5 4 -1.5
v 1.5 5 1.5
v 3.5 0 -1.5
v 3.5 1 -1.5
v 3.5 0 -2.5
v 3.5 1 -2.5
v -0.5 4 -1.5
v -0.5 5 -1.5
v 2.5 0 3.5
v 2.5 1 3.5
v -2.5 0 -1.5
v -2.5 0 -0.5
v -2.5 0 1.5
v -2.5 0 0.5
v -0.5 6 1.5
v 0.5 6 1.5
v 0.5 7 1.5
v -0.5 7 1.5
v -1.5 0 -2.5
v -0.5 0 -2.5
v -0.5 1 -2.5
v -1.5 1 -2.5
v 1.5 1 2.5
v 1.5 2 2.5
v 0.5 1 2.5
v 0.5 2 2.5
v -0.5 1 2.5
v -0.5 2 2.5
v -1.5 1 2.5
v -1.5 2 2.5
v 0.5 0 -2.5
v 0.5 1 -2.5
v 1.5 0 -2.5
v 1.5 1 -2.5
v 0.5 3 1.5
v 0.5 0 3.5
v 1.5 0 3.5
v 1.5 1 3.5
v 0.5 1 3.5
v -0.5 3 1.5
v -0.5 0 3.5
v -0.5 1 3.5
v -1.5 0 3.5
v -1.5 1 3.5
v 0.5 6 -1.5
v 0.5 7 -1.5
v -0.5 6 -1.5
v -0.5 7 -1.5
v -1.5 0 -3.5
v -1.5 1 -3.5
v -0.5 1 -3.5
v -0.5 0 -3.5
v 0.5 1 -3.5
v 0.5 0 -3.5
v 1.5 1 -3.5
v 1.5 0 -3.5
v 1.5 2 -2.5
v 0.5 2 -2.5
v -0.5 2 -2.5
v -1.5 2 -2.5
v 0.5 0 2.5
v 1.5 0 2.5
v 0.5 3 -1.5
v -0.5 3 -1.5
v -0.5 0 2.5
v -1.5 0 2.5
v 1.5 1 1.5
v 0.5 1 1.5
v -0.5 1 1.5
v -1.5 1 1.5
v -1.5 1 -0.5
v -1.5 1 0.5
v 1.5 1 0.5
v 0.5 1 0.5
v -0.5 1 0.5
v 1.5 1 -0.5
v 1.5 1 -1.5
v 0.5 1 -0.5
v 0.5 1 -1.5
v -0.5 1 -1.5
v -1.5 1 -1.5
v -0.5 1 -0.5
v 0.5 7 0.5
v -0.5 7 0.5
v 0.5 7 -0.5
v -0.5 7 -0.5
v 1.5 2 1.5
v 0.5 2 1.5
v -0.5 2 1.5
v -1.5 2 1.5
v -1.5 2 0.5
v -1.5 2 -0.5
v 1.5 2 0.5
v 1.5 2 -0.5
v 1.5 2 -1.5
v 0.5 2 -1.5
v -0.5 2 -1.5
v -1.5 2 -1.5

# faces

usemtl palette

f 1/3/1 2/3/1 3/3/1 4/3/1

f 2/1/1 5/1/1 6/1/1 3/1/1

f 3/1/1 6/1/1 7/1/1 8/1/1

f 8/1/1 7/1/1 9/1/1 10/1/1

f 11/2/1 12/2/1 13/2/1 14/2/1

f 15/2/1 16/2/1 12/2/1 11/2/1

f 17/2/1 18/2/1 16/2/1 15/2/1

f 19/3/1 1/3/1 4/3/1 20/3/1

f 4/3/1 3/3/1 8/3/1 21/3/1

f 22/2/1 23/2/1 24/2/1 25/2/1

f 26/3/1 27/3/1 28/3/1 29/3/1

f 21/3/1 8/3/1 10/3/1 30/3/1

f 25/2/1 24/2/1 31/2/1 32/2/1

f 32/2/1 31/2/1 33/2/1 34/2/1

f 35/4/1 36/4/1 37/4/1 38/4/1

f 39/3/1 20/3/1 40/3/1 41/3/1

f 41/3/1 40/3/1 42/3/1 43/3/1

f 44/3/1 45/3/1 46/3/1 47/3/1

f 14/2/1 13/2/1 48/2/1 49/2/1

f 50/3/1 51/3/1 52/3/1 53/3/1

f 49/2/1 48/2/1 54/2/1 55/2/1

f 40/3/1 21/3/1 30/3/1 42/3/1

f 56/3/1 19/3/1 20/3/1 39/3/1

f 57/2/1 34/2/1 58/2/1 59/2/1

f 60/2/1 61/2/1 62/2/1 63/2/1

f 63/2/1 62/2/1 23/2/1 22/2/1

f 64/2/1 65/2/1 60/2/1 66/2/1

f 67/2/1 68/2/1 69/2/1 70/2/1

f 71/2/1 72/2/1 68/2/1 67/2/1

f 73/2/1 74/2/1 75/2/1 76/2/1

f 76/2/1 75/2/1 72/2/1 71/2/1

f 77/2/1 78/2/1 74/2/1 73/2/1

f 79/1/2 80/1/2 81/1/2 82/1/2

f 80/1/2 83/1/2 84/1/2 81/1/2

f 83/1/2 85/1/2 86/1/2 84/1/2

f 87/2/2 88/2/2 89/2/2 90/2/2

f 91/2/2 87/2/2 90/2/2 92/2/2

f 93/2/2 91/2/2 92/2/2 94/2/2

f 95/3/2 26/3/2 27/3/2 96/3/2

f 18/2/2 16/2/2 97/2/2 98/2/2

f 16/2/2 12/2/2 99/2/2 97/2/2

f 47/3/2 50/3/2 51/3/2 46/3/2

f 55/2/2 100/2/2 101/2/2 54/2/2

f 12/2/2 13/2/2 102/2/2 99/2/2

f 13/2/2 48/2/2 103/2/2 102/2/2

f 48/2/2 54/2/2 104/2/2 103/2/2

f 105/3/2 106/3/2 85/3/2 83/3/2

f 107/3/2 108/3/2 109/3/2 110/3/2

f 111/3/2 105/3/2 83/3/2 80/3/2

f 112/4/2 113/4/2 114/4/2 115/4/2

f 108/3/2 116/3/2 117/3/2 109/3/2

f 116/3/2 118/3/2 119/3/2 117/3/2

f 110/3/2 109/3/2 111/3/2 120/3/2

f 88/2/2 121/2/2 122/2/2 89/2/2

f 117/3/2 119/3/2 106/3/2 105/3/2

f 121/2/2 123/2/2 124/2/2 122/2/2

f 29/3/2 125/3/2 126/3/2 28/3/2

f 120/3/2 111/3/2 80/3/2 79/3/2

f 127/2/2 17/2/2 18/2/2 128/2/2

f 129/2/2 57/2/2 34/2/2 32/2/2

f 130/2/2 129/2/2 32/2/2 25/2/2

f 131/2/2 132/2/2 22/2/2 63/2/2

f 132/2/2 130/2/2 25/2/2 22/2/2

f 66/2/2 131/2/2 63/2/2 60/2/2

f 1/3/3 96/3/3 133/3/3 2/3/3

f 134/1/3 79/1/3 82/1/3 135/1/3

f 133/1/3 134/1/3 135/1/3 136/1/3

f 2/1/3 133/1/3 136/1/3 5/1/3

f 17/2/3 93/2/3 94/2/3 18/2/3

f 19/3/3 95/3/3 96/3/3 1/3/3

f 96/3/3 45/3/3 134/3/3 133/3/3

f 137/2/3 138/2/3 139/2/3 140/2/3

f 141/2/3 18/2/3 98/2/3 142/2/3

f 143/2/3 141/2/3 142/2/3 144/2/3

f 145/2/3 143/2/3 144/2/3 146/2/3

f 147/2/3 145/2/3 146/2/3 148/2/3

f 138/2/3 149/2/3 150/2/3 139/2/3

f 26/3/3 47/3/3 46/3/3 27/3/3

f 149/2/3 151/2/3 152/2/3 150/2/3

f 151/2/3 55/2/3 54/2/3 152/2/3

f 153/3/3 107/3/3 110/3/3 44/3/3

f 154/2/3 155/2/3 156/2/3 157/2/3

f 35/4/3 112/4/3 115/4/3 36/4/3

f 44/3/3 110/3/3 120/3/3 45/3/3

f 50/3/3 117/3/3 105/3/3 51/3/3

f 40/3/3 29/3/3 28/3/3 21/3/3

f 56/3/3 158/3/3 95/3/3 19/3/3

f 45/3/3 120/3/3 79/3/3 134/3/3

f 158/3/3 153/3/3 44/3/3 95/3/3

f 159/2/3 154/2/3 157/2/3 160/2/3

f 57/2/3 137/2/3 140/2/3 34/2/3

f 161/2/3 159/2/3 160/2/3 162/2/3

f 60/2/3 147/2/3 148/2/3 61/2/3

f 64/2/3 161/2/3 162/2/3 65/2/3

f 155/2/3 127/2/3 128/2/3 156/2/3

f 77/2/3 66/2/3 60/2/3 78/2/3

f 163/1/4 164/1/4 86/1/4 85/1/4

f 165/1/4 166/1/4 164/1/4 163/1/4

f 10/1/4 9/1/4 166/1/4 165/1/4

f 20/3/4 4/3/4 27/3/4 26/3/4

f 167/2/4 168/2/4 169/2/4 170/2/4

f 170/2/4 169/2/4 171/2/4 172/2/4

f 29/3/4 28/3/4 51/3/4 50/3/4

f 30/3/4 10/3/4 165/3/4 126/3/4

f 172/2/4 171/2/4 173/2/4 174/2/4

f 174/2/4 173/2/4 101/2/4 100/2/4

f 126/3/4 165/3/4 163/3/4 52/3/4

f 152/2/4 175/2/4 104/2/4 54/2/4

f 150/2/4 176/2/4 175/2/4 152/2/4

f 139/2/4 177/2/4 176/2/4 150/2/4

f 140/2/4 178/2/4 177/2/4 139/2/4

f 52/3/4 163/3/4 85/3/4 106/3/4

f 34/2/4 33/2/4 178/2/4 140/2/4

f 179/2/4 143/2/4 141/2/4 180/2/4

f 38/4/4 37/4/4 114/4/4 113/4/4

f 181/3/4 53/3/4 119/3/4 118/3/4

f 182/3/4 125/3/4 53/3/4 181/3/4

f 43/3/4 42/3/4 125/3/4 182/3/4

f 47/3/4 46/3/4 111/3/4 109/3/4

f 53/3/4 52/3/4 106/3/4 119/3/4

f 55/2/4 54/2/4 124/2/4 123/2/4

f 42/3/4 30/3/4 126/3/4 125/3/4

f 183/2/4 145/2/4 143/2/4 179/2/4

f 59/2/4 58/2/4 168/2/4 167/2/4

f 184/2/4 147/2/4 145/2/4 183/2/4

f 66/2/4 60/2/4 147/2/4 184/2/4

f 180/2/4 141/2/4 18/2/4 17/2/4

f 70/2/4 69/2/4 34/2/4 57/2/4

f 11/2/5 14/2/5 88/2/5 87/2/5

f 15/2/5 11/2/5 87/2/5 91/2/5

f 17/2/5 15/2/5 91/2/5 93/2/5

f 96/3/5 27/3/5 46/3/5 45/3/5

f 4/3/5 21/3/5 28/3/5 27/3/5

f 137/2/5 167/2/5 170/2/5 138/2/5

f 141/2/5 185/2/5 16/2/5 18/2/5

f 143/2/5 186/2/5 185/2/5 141/2/5

f 145/2/5 187/2/5 186/2/5 143/2/5

f 147/2/5 188/2/5 187/2/5 145/2/5

f 22/2/5 25/2/5 189/2/5 190/2/5

f 138/2/5 170/2/5 172/2/5 149/2/5

f 185/2/5 191/2/5 12/2/5 16/2/5

f 186/2/5 192/2/5 191/2/5 185/2/5

f 187/2/5 193/2/5 192/2/5 186/2/5

f 188/2/5 190/2/5 193/2/5 187/2/5

f 149/2/5 172/2/5 174/2/5 151/2/5

f 151/2/5 174/2/5 100/2/5 55/2/5

f 28/3/5 126/3/5 52/3/5 51/3/5

f 191/2/5 194/2/5 13/2/5 12/2/5

f 194/2/5 195/2/5 48/2/5 13/2/5

f 195/2/5 152/2/5 54/2/5 48/2/5

f 192/2/5 196/2/5 194/2/5 191/2/5

f 196/2/5 197/2/5 195/2/5 194/2/5

f 197/2/5 150/2/5 152/2/5 195/2/5

f 198/2/5 139/2/5 150/2/5 197/2/5

f 199/2/5 140/2/5 139/2/5 198/2/5

f 25/2/5 32/2/5 199/2/5 189/2/5

f 200/2/5 198/2/5 197/2/5 196/2/5

f 189/2/5 199/2/5 198/2/5 200/2/5

f 153/3/5 115/3/5 108/3/5 107/3/5

f 32/2/5 34/2/5 140/2/5 199/2/5

f 154/2/5 179/2/5 180/2/5 155/2/5

f 46/3/5 51/3/5 105/3/5 111/3/5

f 190/2/5 189/2/5 200/2/5 193/2/5

f 193/2/5 200/2/5 196/2/5 192/2/5

f 115/3/5 114/3/5 116/3/5 108/3/5

f 39/3/5 41/3/5 37/3/5 36/3/5

f 114/3/5 181/3/5 118/3/5 116/3/5

f 37/3/5 182/3/5 181/3/5 114/3/5

f 41/3/5 43/3/5 182/3/5 37/3/5

f 14/2/5 49/2/5 121/2/5 88/2/5

f 49/2/5 55/2/5 123/2/5 121/2/5

f 56/3/5 39/3/5 36/3/5 158/3/5

f 158/3/5 36/3/5 115/3/5 153/3/5

f 159/2/5 183/2/5 179/2/5 154/2/5

f 57/2/5 59/2/5 167/2/5 137/2/5

f 161/2/5 184/2/5 183/2/5 159/2/5

f 60/2/5 63/2/5 188/2/5 147/2/5

f 63/2/5 22/2/5 190/2/5 188/2/5

f 64/2/5 66/2/5 184/2/5 161/2/5

f 155/2/5 180/2/5 17/2/5 127/2/5

f 67/2/5 70/2/5 57/2/5 129/2/5

f 71/2/5 67/2/5 129/2/5 130/2/5

f 73/2/5 76/2/5 132/2/5 131/2/5

f 76/2/5 71/2/5 130/2/5 132/2/5

f 77/2/5 73/2/5 131/2/5 66/2/5

f 135/1/6 82/1/6 81/1/6 201/1/6

f 136/1/6 135/1/6 201/1/6 202/1/6

f 5/1/6 136/1/6 202/1/6 6/1/6

f 201/1/6 81/1/6 84/1/6 203/1/6

f 202/1/6 201/1/6 203/1/6 204/1/6

f 6/1/6 202/1/6 204/1/6 7/1/6

f 203/1/6 84/1/6 86/1/6 164/1/6

f 204/1/6 203/1/6 164/1/6 166/1/6

f 7/1/6 204/1/6 166/1/6 9/1/6

f 12/2/6 90/2/6 89/2/6 13/2/6

f 16/2/6 92/2/6 90/2/6 12/2/6

f 18/2/6 94/2/6 92/2/6 16/2/6

f 140/2/6 139/2/6 169/2/6 168/2/6

f 142/2/6 98/2/6 97/2/6 205/2/6

f 144/2/6 142/2/6 205/2/6 206/2/6

f 146/2/6 144/2/6 206/2/6 207/2/6

f 148/2/6 146/2/6 207/2/6 208/2/6

f 23/2/6 209/2/6 210/2/6 24/2/6

f 139/2/6 150/2/6 171/2/6 169/2/6

f 205/2/6 97/2/6 99/2/6 211/2/6

f 206/2/6 205/2/6 211/2/6 112/2/6

f 207/2/6 206/2/6 112/2/6 35/2/6

f 208/2/6 207/2/6 35/2/6 209/2/6

f 150/2/6 152/2/6 173/2/6 171/2/6

f 152/2/6 54/2/6 101/2/6 173/2/6

f 211/2/6 99/2/6 102/2/6 212/2/6

f 212/2/6 102/2/6 103/2/6 213/2/6

f 213/2/6 103/2/6 104/2/6 175/2/6

f 112/2/6 211/2/6 212/2/6 113/2/6

f 113/2/6 212/2/6 213/2/6 214/2/6

f 214/2/6 213/2/6 175/2/6 176/2/6

f 215/2/6 214/2/6 176/2/6 177/2/6

f 216/2/6 215/2/6 177/2/6 178/2/6

f 24/2/6 210/2/6 216/2/6 31/2/6

f 38/2/6 113/2/6 214/2/6 215/2/6

f 210/2/6 38/2/6 215/2/6 216/2/6

f 31/2/6 216/2/6 178/2/6 33/2/6

f 157/2/6 156/2/6 141/2/6 143/2/6

f 209/2/6 35/2/6 38/2/6 210/2/6

f 47/3/6 109/3/6 117/3/6 50/3/6

f 20/3/6 26/3/6 29/3/6 40/3/6

f 29/3/6 50/3/6 53/3/6 125/3/6

f 13/2/6 89/2/6 122/2/6 48/2/6

f 48/2/6 122/2/6 124/2/6 54/2/6

f 95/3/6 44/3/6 47/3/6 26/3/6

f 160/2/6 157/2/6 143/2/6 145/2/6

f 34/2/6 140/2/6 168/2/6 58/2/6

f 162/2/6 160/2/6 145/2/6 147/2/6

f 61/2/6 148/2/6 208/2/6 62/2/6

f 62/2/6 208/2/6 209/2/6 23/2/6

f 65/2/6 162/2/6 147/2/6 60/2/6

f 156/2/6 128/2/6 18/2/6 141/2/6

f 68/2/6 32/2/6 34/2/6 69/2/6

f 72/2/6 25/2/6 32/2/6 68/2/6

f 74/2/6 63/2/6 22/2/6 75/2/6

f 75/2/6 22/2/6 25/2/6 72/2/6

f 78/2/6 60/2/6 63/2/6 74/2/6

# numNormals 6
# numTexCoords 4
# numVerts 216
# numFaces 242
