# MagicaVoxel @ ephtracy

# material
mtllib signal_base.mtl

# normals
vn -1 0 0
vn 1 0 0
vn 0 0 1
vn 0 0 -1
vn 0 -1 0
vn 0 1 0

# texcoords
vt 0.958984 0.5

# verts
v 0.5 1 1.5
v 0.5 2 1.5
v 0.5 2 0.5
v 0.5 1 0.5
v -1.5 1 -0.5
v -1.5 2 -0.5
v -1.5 2 -1.5
v -1.5 1 -1.5
v -1.5 0 1.5
v -1.5 1 1.5
v -1.5 1 0.5
v -1.5 0 0.5
v -0.5 2 1.5
v -0.5 3 1.5
v -0.5 3 0.5
v -0.5 2 0.5
v -1.5 0 -0.5
v -1.5 0 -1.5
v -1.5 2 0.5
v -1.5 3 0.5
v -1.5 3 -0.5
v 0.5 1 -0.5
v 0.5 2 -0.5
v 0.5 2 -1.5
v 0.5 1 -1.5
v -1.5 2 1.5
v 0.5 0 -0.5
v 0.5 0 -1.5
v -0.5 2 -0.5
v -0.5 3 -0.5
v -0.5 3 -1.5
v -0.5 2 -1.5
v 0.5 0 1.5
v 0.5 0 0.5
v 1.5 1 1.5
v 1.5 1 0.5
v 1.5 2 0.5
v 1.5 2 1.5
v -0.5 1 -0.5
v -0.5 1 -1.5
v -0.5 0 1.5
v -0.5 0 0.5
v -0.5 1 0.5
v -0.5 1 1.5
v 0.5 3 0.5
v 0.5 3 1.5
v -0.5 0 -0.5
v -0.5 0 -1.5
v 1.5 2 -0.5
v 1.5 3 -0.5
v 1.5 3 0.5
v 1.5 1 -0.5
v 1.5 1 -1.5
v 1.5 2 -1.5
v 1.5 0 -0.5
v 1.5 0 -1.5
v 0.5 3 -1.5
v 0.5 3 -0.5
v 1.5 0 1.5
v 1.5 0 0.5

# faces

usemtl palette

f 1/1/1 2/1/1 3/1/1 4/1/1

f 5/1/1 6/1/1 7/1/1 8/1/1

f 9/1/1 10/1/1 11/1/1 12/1/1

f 13/1/1 14/1/1 15/1/1 16/1/1

f 17/1/1 5/1/1 8/1/1 18/1/1

f 19/1/1 20/1/1 21/1/1 6/1/1

f 22/1/1 23/1/1 24/1/1 25/1/1

f 10/1/1 26/1/1 19/1/1 11/1/1

f 27/1/1 22/1/1 25/1/1 28/1/1

f 29/1/1 30/1/1 31/1/1 32/1/1

f 33/1/1 1/1/1 4/1/1 34/1/1

f 35/1/2 36/1/2 37/1/2 38/1/2

f 39/1/2 40/1/2 32/1/2 29/1/2

f 41/1/2 42/1/2 43/1/2 44/1/2

f 2/1/2 3/1/2 45/1/2 46/1/2

f 47/1/2 48/1/2 40/1/2 39/1/2

f 37/1/2 49/1/2 50/1/2 51/1/2

f 52/1/2 53/1/2 54/1/2 49/1/2

f 44/1/2 43/1/2 16/1/2 13/1/2

f 55/1/2 56/1/2 53/1/2 52/1/2

f 23/1/2 24/1/2 57/1/2 58/1/2

f 59/1/2 60/1/2 36/1/2 35/1/2

f 1/1/3 35/1/3 38/1/3 2/1/3

f 5/1/3 39/1/3 29/1/3 6/1/3

f 9/1/3 41/1/3 44/1/3 10/1/3

f 13/1/3 2/1/3 46/1/3 14/1/3

f 17/1/3 47/1/3 39/1/3 5/1/3

f 3/1/3 37/1/3 51/1/3 45/1/3

f 19/1/3 16/1/3 15/1/3 20/1/3

f 22/1/3 52/1/3 49/1/3 23/1/3

f 10/1/3 44/1/3 13/1/3 26/1/3

f 27/1/3 55/1/3 52/1/3 22/1/3

f 33/1/3 59/1/3 35/1/3 1/1/3

f 4/1/4 3/1/4 37/1/4 36/1/4

f 8/1/4 7/1/4 32/1/4 40/1/4

f 12/1/4 11/1/4 43/1/4 42/1/4

f 18/1/4 8/1/4 40/1/4 48/1/4

f 23/1/4 58/1/4 50/1/4 49/1/4

f 6/1/4 21/1/4 30/1/4 29/1/4

f 25/1/4 24/1/4 54/1/4 53/1/4

f 11/1/4 19/1/4 16/1/4 43/1/4

f 28/1/4 25/1/4 53/1/4 56/1/4

f 32/1/4 31/1/4 57/1/4 24/1/4

f 34/1/4 4/1/4 36/1/4 60/1/4

f 9/1/5 12/1/5 42/1/5 41/1/5

f 13/1/5 16/1/5 3/1/5 2/1/5

f 17/1/5 18/1/5 48/1/5 47/1/5

f 3/1/5 23/1/5 49/1/5 37/1/5

f 19/1/5 6/1/5 29/1/5 16/1/5

f 27/1/5 28/1/5 56/1/5 55/1/5

f 16/1/5 29/1/5 23/1/5 3/1/5

f 29/1/5 32/1/5 24/1/5 23/1/5

f 33/1/5 34/1/5 60/1/5 59/1/5

f 2/1/6 38/1/6 37/1/6 3/1/6

f 6/1/6 29/1/6 32/1/6 7/1/6

f 14/1/6 46/1/6 45/1/6 15/1/6

f 45/1/6 51/1/6 50/1/6 58/1/6

f 20/1/6 15/1/6 30/1/6 21/1/6

f 23/1/6 49/1/6 54/1/6 24/1/6

f 26/1/6 13/1/6 16/1/6 19/1/6

f 15/1/6 45/1/6 58/1/6 30/1/6

f 30/1/6 58/1/6 57/1/6 31/1/6

# numNormals 6
# numTexCoords 1
# numVerts 60
# numFaces 62
