# MagicaVoxel @ ephtracy

# material
mtllib star.mtl

# normals
vn -1 0 0
vn 1 0 0
vn 0 0 1
vn 0 0 -1
vn 0 -1 0
vn 0 1 0

# texcoords
vt 0.474609 0.5

# verts
v -0.5 0 0.5
v -0.5 1 0.5
v -0.5 1 -0.5
v -0.5 0 -0.5
v -1.5 1 0.5
v -1.5 2 0.5
v -1.5 2 -0.5
v -1.5 1 -0.5
v -0.5 2 0.5
v -0.5 3 0.5
v -0.5 3 -0.5
v -0.5 2 -0.5
v -0.5 2 -1.5
v -0.5 1 -1.5
v -0.5 1 1.5
v -0.5 2 1.5
v 0.5 0 0.5
v 0.5 0 -0.5
v 0.5 1 -0.5
v 0.5 1 0.5
v 1.5 1 0.5
v 1.5 1 -0.5
v 1.5 2 -0.5
v 1.5 2 0.5
v 0.5 2 0.5
v 0.5 2 -0.5
v 0.5 3 -0.5
v 0.5 3 0.5
v 0.5 1 -1.5
v 0.5 2 -1.5
v 0.5 1 1.5
v 0.5 2 1.5

# faces

usemtl palette

f 1/1/1 2/1/1 3/1/1 4/1/1

f 5/1/1 6/1/1 7/1/1 8/1/1

f 9/1/1 10/1/1 11/1/1 12/1/1

f 3/1/1 12/1/1 13/1/1 14/1/1

f 15/1/1 16/1/1 9/1/1 2/1/1

f 17/1/2 18/1/2 19/1/2 20/1/2

f 21/1/2 22/1/2 23/1/2 24/1/2

f 25/1/2 26/1/2 27/1/2 28/1/2

f 19/1/2 29/1/2 30/1/2 26/1/2

f 31/1/2 20/1/2 25/1/2 32/1/2

f 1/1/3 17/1/3 20/1/3 2/1/3

f 20/1/3 21/1/3 24/1/3 25/1/3

f 5/1/3 2/1/3 9/1/3 6/1/3

f 9/1/3 25/1/3 28/1/3 10/1/3

f 15/1/3 31/1/3 32/1/3 16/1/3

f 4/1/4 3/1/4 19/1/4 18/1/4

f 19/1/4 26/1/4 23/1/4 22/1/4

f 8/1/4 7/1/4 12/1/4 3/1/4

f 12/1/4 11/1/4 27/1/4 26/1/4

f 14/1/4 13/1/4 30/1/4 29/1/4

f 1/1/5 4/1/5 18/1/5 17/1/5

f 20/1/5 19/1/5 22/1/5 21/1/5

f 5/1/5 8/1/5 3/1/5 2/1/5

f 3/1/5 14/1/5 29/1/5 19/1/5

f 15/1/5 2/1/5 20/1/5 31/1/5

f 25/1/6 24/1/6 23/1/6 26/1/6

f 6/1/6 9/1/6 12/1/6 7/1/6

f 10/1/6 28/1/6 27/1/6 11/1/6

f 12/1/6 26/1/6 30/1/6 13/1/6

f 16/1/6 32/1/6 25/1/6 9/1/6

# numNormals 6
# numTexCoords 1
# numVerts 32
# numFaces 30
